<?xml version="1.0" encoding="utf-8"?>
<!-- Generator: Adobe Illustrator 23.0.1, SVG Export Plug-In . SVG Version: 6.00 Build 0)  -->
<svg version="1.1" id="Layer_1" xmlns="http://www.w3.org/2000/svg" xmlns:xlink="http://www.w3.org/1999/xlink" x="0px" y="0px"
	 viewBox="0 0 26.97 4.71" enable-background="new 0 0 26.97 4.71" xml:space="preserve">
<g>
	<rect x="5.8" y="1.07" fill="none" width="20.35" height="2.95"/>
	<text transform="matrix(1 0 0 1 5.8047 3.6439)" font-family="'Signika-Regular'" font-size="3.5px">reactWeather</text>
	<g>
		<path fill="#5DCAE8" d="M3.63,2.45c0.48-0.03,0.88,0.34,0.91,0.81c0.03,0.48-0.34,0.88-0.81,0.91c-0.03,0-0.07,0-0.1,0H1.13
			c-0.37,0-0.67-0.3-0.67-0.67c0-0.37,0.3-0.67,0.67-0.67h0.05C1.1,2.25,1.5,1.72,2.07,1.64s1.1,0.32,1.18,0.9
			C3.37,2.48,3.5,2.45,3.63,2.45L3.63,2.45z"/>
		<path fill="#FDEC0A" d="M3.1,0.77c0.01,0.05-0.01,0.1-0.06,0.11C3,0.89,2.95,0.87,2.94,0.82c0,0,0-0.01,0-0.01l-0.1-0.36
			C2.83,0.4,2.85,0.35,2.9,0.34c0.05-0.01,0.1,0.01,0.11,0.06c0,0,0,0.01,0,0.01L3.1,0.77z M2.46,1.08c0.03,0.03,0.03,0.09,0,0.12
			c-0.03,0.03-0.09,0.03-0.12,0L2.07,0.94C2.03,0.91,2.03,0.85,2.06,0.82c0.03-0.04,0.09-0.04,0.12-0.01c0,0,0.01,0.01,0.01,0.01
			L2.46,1.08z M4.69,2.58C4.64,2.57,4.61,2.52,4.62,2.47C4.64,2.43,4.69,2.4,4.73,2.41l0.36,0.1c0.05,0.01,0.07,0.06,0.06,0.11
			C5.14,2.66,5.09,2.69,5.05,2.68l0,0L4.69,2.58z M4.73,1.86c-0.05,0.01-0.09-0.02-0.1-0.07c-0.01-0.04,0.02-0.09,0.06-0.1l0.36-0.1
			c0.05-0.01,0.09,0.02,0.1,0.07c0.01,0.04-0.02,0.09-0.06,0.1L4.73,1.86z M4.42,1.22c-0.03,0.03-0.09,0.03-0.12,0
			c-0.03-0.03-0.03-0.09,0-0.12l0.27-0.26c0.03-0.03,0.09-0.03,0.12,0c0.03,0.03,0.03,0.09,0,0.12L4.42,1.22z M3.82,0.82
			C3.81,0.86,3.76,0.89,3.71,0.88C3.67,0.87,3.64,0.82,3.65,0.77l0,0l0.1-0.36c0.01-0.05,0.06-0.07,0.11-0.06
			c0.05,0.01,0.07,0.06,0.06,0.11L3.82,0.82z M3.73,1.25c0.47,0.19,0.7,0.72,0.51,1.19C4.21,2.5,4.18,2.56,4.14,2.62
			C3.88,2.43,3.54,2.4,3.25,2.55C3.19,2.16,2.93,1.84,2.56,1.71C2.76,1.27,3.28,1.07,3.73,1.25L3.73,1.25z"/>
	</g>
</g>
</svg>
